<mxfile host="app.diagrams.net" modified="2023-02-17T15:20:44.663Z" agent="5.0 (Windows NT 10.0; Win64; x64) AppleWebKit/537.36 (KHTML, like Gecko) Chrome/109.0.0.0 Safari/537.36" etag="pFE8uHtcJsOHmpnJ_3y1" version="20.8.20" type="github">
  <diagram name="Page-1" id="SQmuCQHUIsnjFFqMDUfx">
    <mxGraphModel dx="880" dy="427" grid="1" gridSize="10" guides="1" tooltips="1" connect="1" arrows="1" fold="1" page="1" pageScale="1" pageWidth="827" pageHeight="1169" math="0" shadow="0">
      <root>
        <mxCell id="0" />
        <mxCell id="1" parent="0" />
        <mxCell id="jdDTEHVkWQtZIOward6--1" value="PATIENT" style="rounded=0;whiteSpace=wrap;html=1;fillColor=#ffe6cc;strokeColor=#d79b00;" vertex="1" parent="1">
          <mxGeometry x="180" y="180" width="120" height="40" as="geometry" />
        </mxCell>
        <mxCell id="jdDTEHVkWQtZIOward6--2" value="Hospital" style="rounded=0;whiteSpace=wrap;html=1;fillColor=#ffe6cc;strokeColor=#d79b00;" vertex="1" parent="1">
          <mxGeometry x="360" y="370" width="120" height="40" as="geometry" />
        </mxCell>
        <mxCell id="jdDTEHVkWQtZIOward6--4" value="" style="endArrow=none;html=1;rounded=0;exitX=1;exitY=1;exitDx=0;exitDy=0;entryX=0;entryY=0;entryDx=0;entryDy=0;entryPerimeter=0;" edge="1" parent="1" source="jdDTEHVkWQtZIOward6--1" target="jdDTEHVkWQtZIOward6--2">
          <mxGeometry width="50" height="50" relative="1" as="geometry">
            <mxPoint x="290" y="365" as="sourcePoint" />
            <mxPoint x="340" y="315" as="targetPoint" />
          </mxGeometry>
        </mxCell>
        <mxCell id="jdDTEHVkWQtZIOward6--5" value="" style="endArrow=none;html=1;rounded=0;entryX=0;entryY=0.25;entryDx=0;entryDy=0;" edge="1" parent="1" target="jdDTEHVkWQtZIOward6--26">
          <mxGeometry width="50" height="50" relative="1" as="geometry">
            <mxPoint x="460" y="320" as="sourcePoint" />
            <mxPoint x="520" y="210" as="targetPoint" />
          </mxGeometry>
        </mxCell>
        <mxCell id="jdDTEHVkWQtZIOward6--6" value="" style="endArrow=none;html=1;rounded=0;exitX=0.95;exitY=0.5;exitDx=0;exitDy=0;exitPerimeter=0;" edge="1" parent="1" source="jdDTEHVkWQtZIOward6--8">
          <mxGeometry width="50" height="50" relative="1" as="geometry">
            <mxPoint x="460" y="200" as="sourcePoint" />
            <mxPoint x="520" y="200" as="targetPoint" />
          </mxGeometry>
        </mxCell>
        <mxCell id="jdDTEHVkWQtZIOward6--7" value="" style="endArrow=none;html=1;rounded=0;entryX=0.075;entryY=0.5;entryDx=0;entryDy=0;entryPerimeter=0;" edge="1" parent="1" target="jdDTEHVkWQtZIOward6--8">
          <mxGeometry width="50" height="50" relative="1" as="geometry">
            <mxPoint x="300" y="200" as="sourcePoint" />
            <mxPoint x="370" y="200" as="targetPoint" />
          </mxGeometry>
        </mxCell>
        <mxCell id="jdDTEHVkWQtZIOward6--8" value="TREATMENT" style="rhombus;whiteSpace=wrap;html=1;fillColor=#fff2cc;strokeColor=#d6b656;" vertex="1" parent="1">
          <mxGeometry x="374" y="160" width="80" height="80" as="geometry" />
        </mxCell>
        <mxCell id="jdDTEHVkWQtZIOward6--9" value="" style="endArrow=none;html=1;rounded=0;" edge="1" parent="1">
          <mxGeometry width="50" height="50" relative="1" as="geometry">
            <mxPoint x="240" y="180" as="sourcePoint" />
            <mxPoint x="240" y="140" as="targetPoint" />
          </mxGeometry>
        </mxCell>
        <mxCell id="jdDTEHVkWQtZIOward6--10" value="" style="endArrow=none;html=1;rounded=0;" edge="1" parent="1">
          <mxGeometry width="50" height="50" relative="1" as="geometry">
            <mxPoint x="260" y="180" as="sourcePoint" />
            <mxPoint x="290" y="150" as="targetPoint" />
          </mxGeometry>
        </mxCell>
        <mxCell id="jdDTEHVkWQtZIOward6--11" value="" style="endArrow=none;html=1;rounded=0;" edge="1" parent="1">
          <mxGeometry width="50" height="50" relative="1" as="geometry">
            <mxPoint x="210" y="180" as="sourcePoint" />
            <mxPoint x="190" y="150" as="targetPoint" />
          </mxGeometry>
        </mxCell>
        <mxCell id="jdDTEHVkWQtZIOward6--12" value="" style="endArrow=none;html=1;rounded=0;" edge="1" parent="1">
          <mxGeometry width="50" height="50" relative="1" as="geometry">
            <mxPoint x="150" y="170" as="sourcePoint" />
            <mxPoint x="180" y="190" as="targetPoint" />
          </mxGeometry>
        </mxCell>
        <mxCell id="jdDTEHVkWQtZIOward6--13" value="" style="endArrow=none;html=1;rounded=0;exitX=0.7;exitY=0.025;exitDx=0;exitDy=0;exitPerimeter=0;" edge="1" parent="1" source="jdDTEHVkWQtZIOward6--18">
          <mxGeometry width="50" height="50" relative="1" as="geometry">
            <mxPoint x="150" y="230" as="sourcePoint" />
            <mxPoint x="180" y="210" as="targetPoint" />
          </mxGeometry>
        </mxCell>
        <mxCell id="jdDTEHVkWQtZIOward6--14" value="" style="endArrow=none;html=1;rounded=0;exitX=1;exitY=0.5;exitDx=0;exitDy=0;" edge="1" parent="1" source="jdDTEHVkWQtZIOward6--19">
          <mxGeometry width="50" height="50" relative="1" as="geometry">
            <mxPoint x="120" y="200" as="sourcePoint" />
            <mxPoint x="180" y="200" as="targetPoint" />
          </mxGeometry>
        </mxCell>
        <mxCell id="jdDTEHVkWQtZIOward6--15" value="" style="endArrow=none;html=1;rounded=0;exitX=0.7;exitY=0.025;exitDx=0;exitDy=0;exitPerimeter=0;" edge="1" parent="1" source="jdDTEHVkWQtZIOward6--25">
          <mxGeometry width="50" height="50" relative="1" as="geometry">
            <mxPoint x="200" y="240" as="sourcePoint" />
            <mxPoint x="220" y="220" as="targetPoint" />
          </mxGeometry>
        </mxCell>
        <mxCell id="jdDTEHVkWQtZIOward6--17" value="" style="ellipse;whiteSpace=wrap;html=1;fillColor=#dae8fc;strokeColor=#6c8ebf;" vertex="1" parent="1">
          <mxGeometry x="270" y="120" width="80" height="40" as="geometry" />
        </mxCell>
        <mxCell id="jdDTEHVkWQtZIOward6--18" value="injury" style="ellipse;whiteSpace=wrap;html=1;fillColor=#dae8fc;strokeColor=#6c8ebf;" vertex="1" parent="1">
          <mxGeometry x="100" y="248" width="80" height="40" as="geometry" />
        </mxCell>
        <mxCell id="jdDTEHVkWQtZIOward6--19" value="ID" style="ellipse;whiteSpace=wrap;html=1;fontStyle=4;fillColor=#dae8fc;strokeColor=#6c8ebf;" vertex="1" parent="1">
          <mxGeometry x="40" y="190" width="80" height="40" as="geometry" />
        </mxCell>
        <mxCell id="jdDTEHVkWQtZIOward6--20" value="Age" style="ellipse;whiteSpace=wrap;html=1;dashed=1;fillColor=#dae8fc;strokeColor=#6c8ebf;" vertex="1" parent="1">
          <mxGeometry x="70" y="150" width="80" height="40" as="geometry" />
        </mxCell>
        <mxCell id="jdDTEHVkWQtZIOward6--21" value="Date of birth" style="ellipse;whiteSpace=wrap;html=1;fillColor=#dae8fc;strokeColor=#6c8ebf;" vertex="1" parent="1">
          <mxGeometry x="120" y="120" width="80" height="40" as="geometry" />
        </mxCell>
        <mxCell id="jdDTEHVkWQtZIOward6--22" value="Name" style="ellipse;whiteSpace=wrap;html=1;fillColor=#dae8fc;strokeColor=#6c8ebf;" vertex="1" parent="1">
          <mxGeometry x="200" y="100" width="80" height="40" as="geometry" />
        </mxCell>
        <mxCell id="jdDTEHVkWQtZIOward6--25" value="Parent&#39;s name" style="ellipse;whiteSpace=wrap;html=1;fillColor=#dae8fc;strokeColor=#6c8ebf;" vertex="1" parent="1">
          <mxGeometry x="195" y="248" width="80" height="40" as="geometry" />
        </mxCell>
        <mxCell id="jdDTEHVkWQtZIOward6--26" value="Doctor" style="rounded=0;whiteSpace=wrap;html=1;fillColor=#ffe6cc;strokeColor=#d79b00;" vertex="1" parent="1">
          <mxGeometry x="523" y="188" width="120" height="40" as="geometry" />
        </mxCell>
        <mxCell id="jdDTEHVkWQtZIOward6--28" value="" style="endArrow=none;html=1;rounded=0;" edge="1" parent="1">
          <mxGeometry width="50" height="50" relative="1" as="geometry">
            <mxPoint x="583" y="188" as="sourcePoint" />
            <mxPoint x="583" y="148" as="targetPoint" />
          </mxGeometry>
        </mxCell>
        <mxCell id="jdDTEHVkWQtZIOward6--29" value="" style="endArrow=none;html=1;rounded=0;" edge="1" parent="1">
          <mxGeometry width="50" height="50" relative="1" as="geometry">
            <mxPoint x="598" y="110" as="sourcePoint" />
            <mxPoint x="628" y="80" as="targetPoint" />
          </mxGeometry>
        </mxCell>
        <mxCell id="jdDTEHVkWQtZIOward6--30" value="" style="endArrow=none;html=1;rounded=0;" edge="1" parent="1">
          <mxGeometry width="50" height="50" relative="1" as="geometry">
            <mxPoint x="560" y="110" as="sourcePoint" />
            <mxPoint x="540" y="80" as="targetPoint" />
          </mxGeometry>
        </mxCell>
        <mxCell id="jdDTEHVkWQtZIOward6--31" value="" style="endArrow=none;html=1;rounded=0;entryX=0.038;entryY=0.7;entryDx=0;entryDy=0;entryPerimeter=0;" edge="1" parent="1" target="jdDTEHVkWQtZIOward6--39">
          <mxGeometry width="50" height="50" relative="1" as="geometry">
            <mxPoint x="643" y="188" as="sourcePoint" />
            <mxPoint x="673" y="208" as="targetPoint" />
          </mxGeometry>
        </mxCell>
        <mxCell id="jdDTEHVkWQtZIOward6--32" value="" style="endArrow=none;html=1;rounded=0;exitX=0.7;exitY=0.025;exitDx=0;exitDy=0;exitPerimeter=0;entryX=1;entryY=1;entryDx=0;entryDy=0;" edge="1" parent="1" source="jdDTEHVkWQtZIOward6--37" target="jdDTEHVkWQtZIOward6--26">
          <mxGeometry width="50" height="50" relative="1" as="geometry">
            <mxPoint x="493" y="238" as="sourcePoint" />
            <mxPoint x="650" y="230" as="targetPoint" />
          </mxGeometry>
        </mxCell>
        <mxCell id="jdDTEHVkWQtZIOward6--33" value="" style="endArrow=none;html=1;rounded=0;exitX=1;exitY=0.5;exitDx=0;exitDy=0;entryX=1;entryY=0.5;entryDx=0;entryDy=0;" edge="1" parent="1" source="jdDTEHVkWQtZIOward6--38" target="jdDTEHVkWQtZIOward6--26">
          <mxGeometry width="50" height="50" relative="1" as="geometry">
            <mxPoint x="463" y="208" as="sourcePoint" />
            <mxPoint x="650" y="208" as="targetPoint" />
          </mxGeometry>
        </mxCell>
        <mxCell id="jdDTEHVkWQtZIOward6--35" value="" style="endArrow=none;html=1;rounded=0;" edge="1" parent="1">
          <mxGeometry width="50" height="50" relative="1" as="geometry">
            <mxPoint x="613" y="248" as="sourcePoint" />
            <mxPoint x="600" y="230" as="targetPoint" />
          </mxGeometry>
        </mxCell>
        <mxCell id="jdDTEHVkWQtZIOward6--36" value="L_name" style="ellipse;whiteSpace=wrap;html=1;fillColor=#d5e8d4;strokeColor=#82b366;" vertex="1" parent="1">
          <mxGeometry x="613" y="50" width="80" height="40" as="geometry" />
        </mxCell>
        <mxCell id="jdDTEHVkWQtZIOward6--37" value="Report" style="ellipse;whiteSpace=wrap;html=1;fillColor=#d5e8d4;strokeColor=#82b366;" vertex="1" parent="1">
          <mxGeometry x="680" y="248" width="80" height="40" as="geometry" />
        </mxCell>
        <mxCell id="jdDTEHVkWQtZIOward6--38" value="Appointment date" style="ellipse;whiteSpace=wrap;html=1;fillColor=#d5e8d4;strokeColor=#82b366;" vertex="1" parent="1">
          <mxGeometry x="693" y="188" width="80" height="40" as="geometry" />
        </mxCell>
        <mxCell id="jdDTEHVkWQtZIOward6--39" value="Speciality" style="ellipse;whiteSpace=wrap;html=1;fillColor=#d5e8d4;strokeColor=#82b366;" vertex="1" parent="1">
          <mxGeometry x="700" y="140" width="80" height="40" as="geometry" />
        </mxCell>
        <mxCell id="jdDTEHVkWQtZIOward6--40" value="F_name" style="ellipse;whiteSpace=wrap;html=1;fillColor=#d5e8d4;strokeColor=#82b366;" vertex="1" parent="1">
          <mxGeometry x="480" y="50" width="80" height="40" as="geometry" />
        </mxCell>
        <mxCell id="jdDTEHVkWQtZIOward6--41" value="Name" style="ellipse;whiteSpace=wrap;html=1;fillColor=#d5e8d4;strokeColor=#82b366;" vertex="1" parent="1">
          <mxGeometry x="543" y="108" width="80" height="40" as="geometry" />
        </mxCell>
        <mxCell id="jdDTEHVkWQtZIOward6--42" value="" style="ellipse;whiteSpace=wrap;html=1;fillColor=#d5e8d4;strokeColor=#82b366;" vertex="1" parent="1">
          <mxGeometry x="580" y="248" width="80" height="40" as="geometry" />
        </mxCell>
        <mxCell id="jdDTEHVkWQtZIOward6--43" value="Mobile_no" style="ellipse;whiteSpace=wrap;html=1;fillColor=#d5e8d4;strokeColor=#82b366;" vertex="1" parent="1">
          <mxGeometry x="585" y="254" width="70" height="28" as="geometry" />
        </mxCell>
        <mxCell id="jdDTEHVkWQtZIOward6--62" value="Mobile_no" style="ellipse;whiteSpace=wrap;html=1;fillColor=#dae8fc;strokeColor=#6c8ebf;" vertex="1" parent="1">
          <mxGeometry x="275" y="125" width="70" height="30" as="geometry" />
        </mxCell>
        <mxCell id="jdDTEHVkWQtZIOward6--64" value="F_name" style="ellipse;whiteSpace=wrap;html=1;fillColor=#dae8fc;strokeColor=#6c8ebf;" vertex="1" parent="1">
          <mxGeometry x="140" y="40" width="80" height="40" as="geometry" />
        </mxCell>
        <mxCell id="jdDTEHVkWQtZIOward6--65" value="l_name" style="ellipse;whiteSpace=wrap;html=1;fillColor=#dae8fc;strokeColor=#6c8ebf;" vertex="1" parent="1">
          <mxGeometry x="260" y="40" width="80" height="40" as="geometry" />
        </mxCell>
        <mxCell id="jdDTEHVkWQtZIOward6--66" value="" style="endArrow=none;html=1;rounded=0;exitX=1;exitY=0;exitDx=0;exitDy=0;" edge="1" parent="1" source="jdDTEHVkWQtZIOward6--22">
          <mxGeometry width="50" height="50" relative="1" as="geometry">
            <mxPoint x="250" y="130" as="sourcePoint" />
            <mxPoint x="300" y="80" as="targetPoint" />
          </mxGeometry>
        </mxCell>
        <mxCell id="jdDTEHVkWQtZIOward6--67" value="" style="endArrow=none;html=1;rounded=0;entryX=0.5;entryY=1;entryDx=0;entryDy=0;exitX=0;exitY=0;exitDx=0;exitDy=0;" edge="1" parent="1" source="jdDTEHVkWQtZIOward6--22" target="jdDTEHVkWQtZIOward6--64">
          <mxGeometry width="50" height="50" relative="1" as="geometry">
            <mxPoint x="220" y="100" as="sourcePoint" />
            <mxPoint x="270" y="50" as="targetPoint" />
          </mxGeometry>
        </mxCell>
        <mxCell id="jdDTEHVkWQtZIOward6--68" value="Customer" style="rhombus;whiteSpace=wrap;html=1;fillColor=#fff2cc;strokeColor=#d6b656;" vertex="1" parent="1">
          <mxGeometry x="280" y="280" width="80" height="80" as="geometry" />
        </mxCell>
        <mxCell id="jdDTEHVkWQtZIOward6--69" value="Employee" style="rhombus;whiteSpace=wrap;html=1;fillColor=#fff2cc;strokeColor=#d6b656;" vertex="1" parent="1">
          <mxGeometry x="430" y="280" width="80" height="80" as="geometry" />
        </mxCell>
        <mxCell id="jdDTEHVkWQtZIOward6--70" value="" style="endArrow=none;html=1;rounded=0;exitX=0.617;exitY=0.025;exitDx=0;exitDy=0;exitPerimeter=0;" edge="1" parent="1" source="jdDTEHVkWQtZIOward6--2">
          <mxGeometry width="50" height="50" relative="1" as="geometry">
            <mxPoint x="400" y="390" as="sourcePoint" />
            <mxPoint x="450" y="340" as="targetPoint" />
          </mxGeometry>
        </mxCell>
      </root>
    </mxGraphModel>
  </diagram>
</mxfile>
